<svg width="400" height="400" viewBox="0 0 400 400" xmlns="http://www.w3.org/2000/svg">
  <defs>
    <linearGradient id="paperGradient" x1="0%" y1="0%" x2="100%" y2="100%">
      <stop offset="0%" style="stop-color:#FEF3C7;stop-opacity:1" />
      <stop offset="50%" style="stop-color:#FCD34D;stop-opacity:1" />
      <stop offset="100%" style="stop-color:#F59E0B;stop-opacity:1" />
    </linearGradient>
  </defs>
  
  <!-- Background -->
  <rect width="400" height="400" fill="#F3F4F6"/>
  
  <!-- Air Filter Frame -->
  <rect x="80" y="120" width="240" height="160" rx="8" fill="#374151" stroke="#1F2937" stroke-width="3"/>
  
  <!-- Air Filter Media -->
  <rect x="90" y="130" width="220" height="140" rx="4" fill="url(#paperGradient)"/>
  
  <!-- Pleated Lines -->
  <line x1="110" y1="130" x2="110" y2="270" stroke="#D97706" stroke-width="2"/>
  <line x1="130" y1="130" x2="130" y2="270" stroke="#D97706" stroke-width="2"/>
  <line x1="150" y1="130" x2="150" y2="270" stroke="#D97706" stroke-width="2"/>
  <line x1="170" y1="130" x2="170" y2="270" stroke="#D97706" stroke-width="2"/>
  <line x1="190" y1="130" x2="190" y2="270" stroke="#D97706" stroke-width="2"/>
  <line x1="210" y1="130" x2="210" y2="270" stroke="#D97706" stroke-width="2"/>
  <line x1="230" y1="130" x2="230" y2="270" stroke="#D97706" stroke-width="2"/>
  <line x1="250" y1="130" x2="250" y2="270" stroke="#D97706" stroke-width="2"/>
  <line x1="270" y1="130" x2="270" y2="270" stroke="#D97706" stroke-width="2"/>
  <line x1="290" y1="130" x2="290" y2="270" stroke="#D97706" stroke-width="2"/>
  
  <!-- Airflow Arrows -->
  <path d="M 40 180 L 60 170 L 60 175 L 80 175 L 80 185 L 60 185 L 60 190 Z" fill="#2563EB"/>
  <path d="M 40 220 L 60 210 L 60 215 L 80 215 L 80 225 L 60 225 L 60 230 Z" fill="#2563EB"/>
  
  <path d="M 340 180 L 360 170 L 360 175 L 380 175 L 380 185 L 360 185 L 360 190 Z" fill="#10B981"/>
  <path d="M 340 220 L 360 210 L 360 215 L 380 215 L 380 225 L 360 225 L 360 230 Z" fill="#10B981"/>
  
  <!-- Label -->
  <text x="200" y="350" font-family="Arial, sans-serif" font-size="20" font-weight="bold" fill="#374151" text-anchor="middle">AIR FILTER</text>
</svg>