<svg width="200" height="60" viewBox="0 0 200 60" xmlns="http://www.w3.org/2000/svg">
  <defs>
    <linearGradient id="blueGradient" x1="0%" y1="0%" x2="100%" y2="100%">
      <stop offset="0%" style="stop-color:#2563EB;stop-opacity:1" />
      <stop offset="100%" style="stop-color:#1D4ED8;stop-opacity:1" />
    </linearGradient>
    <linearGradient id="orangeGradient" x1="0%" y1="0%" x2="100%" y2="100%">
      <stop offset="0%" style="stop-color:#F97316;stop-opacity:1" />
      <stop offset="100%" style="stop-color:#EA580C;stop-opacity:1" />
    </linearGradient>
  </defs>
  
  <!-- Background Circle -->
  <circle cx="30" cy="30" r="26" fill="url(#blueGradient)" stroke="#1E293B" stroke-width="2"/>
  
  <!-- Gear Icon -->
  <g transform="translate(20, 20)">
    <path d="M10 0L11.5 4L16 3L15 7.5L18.5 6L17 10.5L20 9L18.5 13L21 12L19.5 15.5L22 14.5L20.5 18L22.5 17.5L21 20L22 22L18.5 20.5L20.5 23L17 21.5L18.5 24L15 22.5L16 25L12.5 23.5L13.5 26L10 24.5L11 27L7.5 25.5L8.5 28L5 26.5L6 29L2.5 27.5L3.5 30L0 28.5L1 31L-2.5 29.5L-1.5 32L-5 30.5L-4 33L-7.5 31.5L-6.5 34L-10 32.5L-9 35L-12.5 33.5L-11.5 36L-15 34.5L-14 37L-17.5 35.5L-16.5 38L-20 36.5L-19 39L-22.5 37.5L-21.5 40L-25 38.5L-24 41L-27.5 39.5L-26.5 42L-30 40.5L-29 43L-32.5 41.5L-31.5 44L-35 42.5L-34 45L-37.5 43.5L-36.5 46L-40 44.5L-39 47L-42.5 45.5L-41.5 48L-45 46.5L-44 49L-47.5 47.5L-46.5 50L-50 48.5L-49 20L10 0Z" fill="white" opacity="0.9"/>
    
    <!-- Simplified gear shape -->
    <circle cx="10" cy="10" r="8" fill="white"/>
    <circle cx="10" cy="10" r="5" fill="#2563EB"/>
    <rect x="8" y="2" width="4" height="4" fill="white"/>
    <rect x="8" y="14" width="4" height="4" fill="white"/>
    <rect x="2" y="8" width="4" height="4" fill="white"/>
    <rect x="14" y="8" width="4" height="4" fill="white"/>
  </g>
  
  <!-- Filter Element -->
  <g transform="translate(38, 22)">
    <rect x="0" y="0" width="10" height="16" rx="2" fill="url(#orangeGradient)"/>
    <rect x="2" y="2" width="6" height="12" fill="white" opacity="0.8"/>
    <rect x="3" y="4" width="4" height="8" fill="#F97316"/>
    <line x1="3" y1="6" x2="7" y2="6" stroke="white" stroke-width="0.5"/>
    <line x1="3" y1="8" x2="7" y2="8" stroke="white" stroke-width="0.5"/>
    <line x1="3" y1="10" x2="7" y2="10" stroke="white" stroke-width="0.5"/>
  </g>
  
  <!-- Company Name -->
  <text x="65" y="22" font-family="Inter, sans-serif" font-weight="800" font-size="16" fill="#1E293B">
    INDUSTRIAL
  </text>
  <text x="65" y="38" font-family="Inter, sans-serif" font-weight="600" font-size="12" fill="#2563EB">
    FILTER SOLUTIONS
  </text>
  <text x="65" y="50" font-family="Inter, sans-serif" font-weight="400" font-size="8" fill="#6B7280">
    Saudi Arabia
  </text>
</svg>