<svg width="32" height="32" viewBox="0 0 32 32" xmlns="http://www.w3.org/2000/svg">
  <defs>
    <linearGradient id="primaryGradient" x1="0%" y1="0%" x2="100%" y2="100%">
      <stop offset="0%" style="stop-color:#FFD700;stop-opacity:1" />
      <stop offset="100%" style="stop-color:#E6C200;stop-opacity:1" />
    </linearGradient>
    <radialGradient id="centerGradient" cx="50%" cy="50%" r="50%">
      <stop offset="0%" style="stop-color:#FFD700;stop-opacity:1" />
      <stop offset="100%" style="stop-color:#B8860B;stop-opacity:1" />
    </radialGradient>
    <linearGradient id="silverGradient" x1="0%" y1="0%" x2="100%" y2="100%">
      <stop offset="0%" style="stop-color:#E8E8E8;stop-opacity:1" />
      <stop offset="100%" style="stop-color:#C0C0C0;stop-opacity:1" />
    </linearGradient>
  </defs>
  <circle cx="16" cy="16" r="14" fill="url(#primaryGradient)" stroke="#1C1C1C" stroke-width="1"/>
  <g transform="translate(16,16)">
    <g fill="#1C1C1C">
      <polygon points="0,-12 2,-10 -2,-10" transform="rotate(0)"/>
      <polygon points="0,-12 2,-10 -2,-10" transform="rotate(60)"/>
      <polygon points="0,-12 2,-10 -2,-10" transform="rotate(120)"/>
      <polygon points="0,-12 2,-10 -2,-10" transform="rotate(180)"/>
      <polygon points="0,-12 2,-10 -2,-10" transform="rotate(240)"/>
      <polygon points="0,-12 2,-10 -2,-10" transform="rotate(300)"/>
    </g>
    <circle r="9" fill="url(#silverGradient)" stroke="#1C1C1C" stroke-width="0.5"/>
    <circle r="6" fill="url(#centerGradient)" stroke="#1C1C1C" stroke-width="0.5"/>
    <g fill="#1C1C1C" stroke="#1C1C1C" stroke-width="1">
      <rect x="-1" y="-6" width="2" height="4" fill="#1C1C1C" rx="0.5"/>
      <circle cx="0" cy="-4" r="2" fill="none" stroke-width="1"/>
      <path d="M-4,4 L-6,6 M4,-4 L6,-6" stroke-width="1.5" stroke-linecap="round"/>
    </g>
    <circle r="3" fill="#1C1C1C"/>
    <circle r="1.5" fill="#FFD700"/>
  </g>
</svg>