<svg width="32" height="32" viewBox="0 0 32 32" xmlns="http://www.w3.org/2000/svg">
  <defs>
    <linearGradient id="favGradient" x1="0%" y1="0%" x2="100%" y2="100%">
      <stop offset="0%" style="stop-color:#FFD700;stop-opacity:1" />
      <stop offset="100%" style="stop-color:#E6C200;stop-opacity:1" />
    </linearGradient>
    <linearGradient id="silverGradient" x1="0%" y1="0%" x2="100%" y2="100%">
      <stop offset="0%" style="stop-color:#E8E8E8;stop-opacity:1" />
      <stop offset="100%" style="stop-color:#C0C0C0;stop-opacity:1" />
    </linearGradient>
  </defs>
  
  <!-- Background Circle -->
  <circle cx="16" cy="16" r="14" fill="url(#favGradient)" stroke="#1C1C1C" stroke-width="1"/>
  
  <!-- Industrial Gear -->
  <g transform="translate(16,16)">
    <!-- Gear Teeth -->
    <g fill="#1C1C1C">
      <polygon points="0,-12 2,-10 -2,-10" transform="rotate(0)"/>
      <polygon points="0,-12 2,-10 -2,-10" transform="rotate(60)"/>
      <polygon points="0,-12 2,-10 -2,-10" transform="rotate(120)"/>
      <polygon points="0,-12 2,-10 -2,-10" transform="rotate(180)"/>
      <polygon points="0,-12 2,-10 -2,-10" transform="rotate(240)"/>
      <polygon points="0,-12 2,-10 -2,-10" transform="rotate(300)"/>
    </g>
    
    <!-- Middle Ring -->
    <circle r="9" fill="url(#silverGradient)" stroke="#1C1C1C" stroke-width="0.5"/>
    
    <!-- Inner Circle -->
    <circle r="6" fill="#FFD700" stroke="#1C1C1C" stroke-width="0.5"/>
    
    <!-- Center Hub -->
    <circle r="3" fill="#1C1C1C"/>
    <circle r="1.5" fill="#FFD700"/>
  </g>
</svg>