<?xml version="1.0" encoding="UTF-8"?>
<svg width="120" height="120" viewBox="0 0 120 120" fill="none" xmlns="http://www.w3.org/2000/svg">
  <defs>
    <!-- Dark Yellow, Black & Silver Color Scheme -->
    <linearGradient id="primaryGradient" x1="0%" y1="0%" x2="100%" y2="100%">
      <stop offset="0%" style="stop-color:#FFD700;stop-opacity:1" />
      <stop offset="100%" style="stop-color:#E6C200;stop-opacity:1" />
    </linearGradient>
    
    <radialGradient id="centerGradient" cx="50%" cy="50%" r="50%">
      <stop offset="0%" style="stop-color:#FFD700;stop-opacity:1" />
      <stop offset="100%" style="stop-color:#B8860B;stop-opacity:1" />
    </radialGradient>
    
    <linearGradient id="silverGradient" x1="0%" y1="0%" x2="100%" y2="100%">
      <stop offset="0%" style="stop-color:#E8E8E8;stop-opacity:1" />
      <stop offset="100%" style="stop-color:#C0C0C0;stop-opacity:1" />
    </linearGradient>
    
    <!-- Shadow Filter -->
    <filter id="shadow" x="-50%" y="-50%" width="200%" height="200%">
      <feDropShadow dx="3" dy="3" stdDeviation="4" flood-color="rgba(0,0,0,0.4)"/>
    </filter>
  </defs>
  
  <!-- Background Circle -->
  <circle cx="60" cy="60" r="55" fill="url(#primaryGradient)" filter="url(#shadow)" stroke="#1C1C1C" stroke-width="3"/>
  
  <!-- Industrial Gear Design -->
  <g transform="translate(60,60)">
    <!-- Outer Gear Teeth -->
    <g fill="#1C1C1C">
      <polygon points="0,-50 8,-42 -8,-42" transform="rotate(0)"/>
      <polygon points="0,-50 8,-42 -8,-42" transform="rotate(30)"/>
      <polygon points="0,-50 8,-42 -8,-42" transform="rotate(60)"/>
      <polygon points="0,-50 8,-42 -8,-42" transform="rotate(90)"/>
      <polygon points="0,-50 8,-42 -8,-42" transform="rotate(120)"/>
      <polygon points="0,-50 8,-42 -8,-42" transform="rotate(150)"/>
      <polygon points="0,-50 8,-42 -8,-42" transform="rotate(180)"/>
      <polygon points="0,-50 8,-42 -8,-42" transform="rotate(210)"/>
      <polygon points="0,-50 8,-42 -8,-42" transform="rotate(240)"/>
      <polygon points="0,-50 8,-42 -8,-42" transform="rotate(270)"/>
      <polygon points="0,-50 8,-42 -8,-42" transform="rotate(300)"/>
      <polygon points="0,-50 8,-42 -8,-42" transform="rotate(330)"/>
    </g>
    
    <!-- Middle Ring -->
    <circle r="35" fill="url(#silverGradient)" stroke="#1C1C1C" stroke-width="2"/>
    
    <!-- Inner Circle -->
    <circle r="25" fill="url(#centerGradient)" stroke="#1C1C1C" stroke-width="2"/>
    
    <!-- Industrial Symbols -->
    <g fill="#1C1C1C" stroke="#1C1C1C" stroke-width="2">
      <!-- Wrench Symbol -->
      <path d="M-12,-12 L-20,-20 M-12,-12 L-8,-8 M12,12 L20,20 M12,12 L8,8" stroke-width="3" stroke-linecap="round"/>
      <!-- Bolt Symbol -->
      <rect x="-3" y="-20" width="6" height="12" fill="#1C1C1C" rx="1"/>
      <circle cx="0" cy="-14" r="4" fill="none" stroke-width="2"/>
      <!-- Tool Symbol -->
      <path d="M-18,8 L-8,18 M18,-8 L8,-18" stroke-width="3" stroke-linecap="round"/>
    </g>
    
    <!-- Center Hub with Accent -->
    <circle r="12" fill="#1C1C1C"/>
    <circle r="8" fill="#FFD700"/>
    <circle r="4" fill="#1C1C1C"/>
  </g>
</svg>